<?xml version="1.0" encoding="UTF-8" standalone="no"?>
<!-- Created with Inkscape (http://www.inkscape.org/) -->

<svg
   xmlns:dc="http://purl.org/dc/elements/1.1/"
   xmlns:cc="http://creativecommons.org/ns#"
   xmlns:rdf="http://www.w3.org/1999/02/22-rdf-syntax-ns#"
   xmlns:svg="http://www.w3.org/2000/svg"
   xmlns="http://www.w3.org/2000/svg"
   xmlns:sodipodi="http://sodipodi.sourceforge.net/DTD/sodipodi-0.dtd"
   xmlns:inkscape="http://www.inkscape.org/namespaces/inkscape"
   width="500"
   height="500"
   viewBox="0 0 500.00001 500.00001"
   id="svg62137"
   version="1.1"
   inkscape:version="0.91 r13725"
   sodipodi:docname="add.svg">
  <defs
     id="defs62139" />
  <sodipodi:namedview
     id="base"
     pagecolor="#ffffff"
     bordercolor="#666666"
     borderopacity="1.0"
     inkscape:pageopacity="0.0"
     inkscape:pageshadow="2"
     inkscape:zoom="0.98994949"
     inkscape:cx="140.40259"
     inkscape:cy="174.37817"
     inkscape:document-units="px"
     inkscape:current-layer="layer1"
     showgrid="false"
     units="px"
     inkscape:window-width="1920"
     inkscape:window-height="1017"
     inkscape:window-x="-8"
     inkscape:window-y="-8"
     inkscape:window-maximized="1" />
  <metadata
     id="metadata62142">
    <rdf:RDF>
      <cc:Work
         rdf:about="">
        <dc:format>image/svg+xml</dc:format>
        <dc:type
           rdf:resource="http://purl.org/dc/dcmitype/StillImage" />
        <dc:title></dc:title>
      </cc:Work>
    </rdf:RDF>
  </metadata>
  <g
     inkscape:label="Layer 1"
     inkscape:groupmode="layer"
     id="layer1"
     transform="translate(0,-552.36216)">
    <g
       id="g29560"
       transform="matrix(6.326071,0,0,-6.2980224,500,802.36216)">
      <path
         d="m 0,0 c 0,-21.922 -17.694,-39.695 -39.521,-39.695 -21.823,0 -39.517,17.773 -39.517,39.695 0,21.923 17.694,39.695 39.517,39.695 C -17.694,39.695 0,21.923 0,0"
         style="fill:#b00000;fill-opacity:1;fill-rule:nonzero;stroke:none"
         id="path29562"
         inkscape:connector-curvature="0" />
    </g>
    <g
       id="g29564"
       transform="matrix(6.326071,0,0,-6.2980224,489.1394,802.36216)">
      <path
         d="m 0,0 c 0,-20.97 -16.927,-37.969 -37.804,-37.969 -20.876,0 -37.8,16.999 -37.8,37.969 0,20.971 16.924,37.97 37.8,37.97 C -16.927,37.97 0,20.971 0,0"
         style="fill:#ef4500;fill-opacity:1;fill-rule:nonzero;stroke:none"
         id="path29566"
         inkscape:connector-curvature="0" />
    </g>
    <g
       id="g29568"
       transform="matrix(6.326071,0,0,-6.2980224,475.09112,804.65902)">
      <path
         d="m 0,0 c -0.083,-20.001 -16.081,-36.053 -35.732,-35.852 -19.651,0.202 -35.515,16.58 -35.432,36.581 0.081,20.002 16.077,36.054 35.726,35.852 C -15.783,36.379 0.08,20.001 0,0 Z"
         style="fill:none;stroke:#ffffff;stroke-width:1;stroke-linecap:butt;stroke-linejoin:miter;stroke-miterlimit:10;stroke-dasharray:1, 2;stroke-dashoffset:0;stroke-opacity:1"
         id="path29570"
         inkscape:connector-curvature="0" />
    </g>
    <path
       inkscape:connector-curvature="0"
       id="path100"
       style="fill:#ffedbb;fill-opacity:1;fill-rule:nonzero;stroke:none"
       d="m 355.62797,755.30565 -58.57144,0 0,-58.57146 c 0,-25.99313 -21.08168,-47.06569 -47.07481,-47.06569 -25.99315,0 -47.0474,21.07256 -47.0474,47.06569 l 0,58.57146 -58.58058,0 c -25.98398,0 -47.047389,21.07252 -47.047389,47.06567 0,25.98436 21.063409,47.05691 47.047389,47.05691 l 58.58058,0 0,58.57143 c 0,25.99313 21.05425,47.05616 47.04739,47.05616 25.99314,0 47.0748,-21.06303 47.0748,-47.05616 l 0,-58.57143 58.57145,0 c 25.99313,0 47.06569,-21.07255 47.06569,-47.05691 0,-25.99314 -21.07256,-47.06567 -47.06569,-47.06567" />
  </g>
</svg>
