<?xml version="1.0" encoding="UTF-8" standalone="no"?>
<!-- Created with Inkscape (http://www.inkscape.org/) -->

<svg
   xmlns:dc="http://purl.org/dc/elements/1.1/"
   xmlns:cc="http://creativecommons.org/ns#"
   xmlns:rdf="http://www.w3.org/1999/02/22-rdf-syntax-ns#"
   xmlns:svg="http://www.w3.org/2000/svg"
   xmlns="http://www.w3.org/2000/svg"
   xmlns:sodipodi="http://sodipodi.sourceforge.net/DTD/sodipodi-0.dtd"
   xmlns:inkscape="http://www.inkscape.org/namespaces/inkscape"
   width="140"
   height="50"
   viewBox="0 0 140 50"
   id="svg3729"
   version="1.1"
   inkscape:version="0.91 r13725"
   sodipodi:docname="logo.svg">
  <defs
     id="defs3731" />
  <sodipodi:namedview
     id="base"
     pagecolor="#ffffff"
     bordercolor="#666666"
     borderopacity="1.0"
     inkscape:pageopacity="0.0"
     inkscape:pageshadow="2"
     inkscape:zoom="7.919596"
     inkscape:cx="94.874605"
     inkscape:cy="25.399491"
     inkscape:document-units="px"
     inkscape:current-layer="layer1"
     showgrid="false"
     units="px"
     inkscape:window-width="1920"
     inkscape:window-height="1017"
     inkscape:window-x="-8"
     inkscape:window-y="-8"
     inkscape:window-maximized="1" />
  <metadata
     id="metadata3734">
    <rdf:RDF>
      <cc:Work
         rdf:about="">
        <dc:format>image/svg+xml</dc:format>
        <dc:type
           rdf:resource="http://purl.org/dc/dcmitype/StillImage" />
        <dc:title></dc:title>
      </cc:Work>
    </rdf:RDF>
  </metadata>
  <g
     inkscape:label="Layer 1"
     inkscape:groupmode="layer"
     id="layer1"
     transform="translate(0,-1002.3622)">
    <g
       id="g4196"
       transform="matrix(1.1054814,0,0,1.0613252,-0.99854795,-64.172508)">
      <g
         transform="matrix(0.97136162,0,0,0.97136162,1.3889613,30.128131)"
         id="g4150">
        <path
           inkscape:connector-curvature="0"
           style="fill:#241c1c;fill-opacity:1;fill-rule:evenodd;stroke:none"
           d="m 14.652349,1042.4333 c 1.352514,-1.8744 4.582464,-2.1231 6.188448,-0.5787 l 0.86831,-1.214 c -2.189607,-2.1394 -6.287528,-1.7595 -8.12255,0.8158 l 1.065792,0.9769 z"
           id="path3753" />
        <path
           inkscape:connector-curvature="0"
           style="fill:#241c1c;fill-opacity:1;fill-rule:evenodd;stroke:none"
           d="m 33.346972,1042.4333 c -1.351157,-1.8744 -4.580429,-2.1231 -6.189127,-0.5787 l -0.865934,-1.214 c 2.189607,-2.1394 6.28651,-1.7595 8.122549,0.8158 l -1.067488,0.9769 z"
           id="path3751" />
        <path
           inkscape:connector-curvature="0"
           style="fill:#241c1c;fill-opacity:1;fill-rule:evenodd;stroke:none"
           d="m 24.000848,1049.5234 c -6.587484,-3.2222 -14.8671367,6.4744 -18.636939,0.5148 -1.5377808,-2.7883 0.6677741,-5.1296 2.447148,-4.1507 -2.4328967,0.631 -1.9921251,4.0852 0.3114922,4.6806 2.9045458,0.748 9.0353098,-8.9308 15.8782988,-5.1942 6.841971,-3.7366 12.973074,5.9422 15.875245,5.1942 2.305653,-0.5954 2.746085,-4.0496 0.312171,-4.6806 1.779034,-0.9789 3.984589,1.3624 2.448166,4.1507 -3.769463,5.9596 -12.050134,-3.737 -18.635582,-0.5148"
           id="path3749" />
        <path
           inkscape:connector-curvature="0"
           style="fill:#ffffff;fill-opacity:1;fill-rule:evenodd;stroke:#000000;stroke-opacity:1"
           d="m 39.435661,1008.0868 c 4.72328,0 8.564339,4.4819 8.564339,9.993 0,5.5277 -3.841059,9.9953 -8.564339,9.9953 l -0.127923,0 -1.919511,9.8418 c -1.410198,-0.7952 -6.871831,-1.3921 -13.387379,-1.3921 -6.516566,0 -11.978538,0.5969 -13.387718,1.3921 l -1.9198511,-9.8418 -0.1289401,0 c -4.7382106,0 -8.56433935748002,-4.4676 -8.56433935748002,-9.9953 0,-5.5111 3.82612875748002,-9.993 8.56433935748002,-9.993 2.0352182,0 3.9119762,0.8468 5.3768032,2.2227 2.16348,-3.7838 5.862026,-6.29 10.059706,-6.29 4.195644,0 7.895547,2.5062 10.044097,6.29 1.479418,-1.3759 3.356515,-2.2227 5.390716,-2.2227"
           id="path326" />
      </g>
      <path
         id="path4163"
         transform="translate(0,1004.3622)"
         d="m 98.505859,1.8671875 c -0.432692,0.5022 -0.905471,0.8181792 -1.421875,0.9453125 -0.459025,0.1130667 -1.114258,0.024328 -1.96289,-0.2636719 -0.09689,1.1396 -0.339193,2.2034729 -0.726563,3.1914063 0.682206,0.3594666 1.435393,0.4388614 2.257813,0.2363281 1.692654,-0.4168667 2.309782,-1.787375 1.853515,-4.109375 z m 24.457031,0.109375 c -0.37904,-0.028383 -0.79164,0.011594 -1.23633,0.1210937 -1.71178,0.4216 -3.10677,1.6381709 -4.18554,3.6484376 -1.08068,2.0006 -1.42061,4.0270583 -1.01758,6.0781252 0.26995,1.373866 0.88461,2.383097 1.84375,3.029297 0.96869,0.643933 2.10372,0.806661 3.40429,0.486328 1.16669,-0.287267 2.17756,-0.835798 3.03125,-1.644532 0.85182,-0.818333 1.76533,-1.981767 2.74219,-3.490234 L 127.2168,8.5351562 c -0.9252,1.4652668 -1.6392,2.4439268 -2.14453,2.9335938 -0.50726,0.479867 -1.07783,0.797725 -1.70899,0.953125 -1.61615,0.398067 -2.79951,-0.299464 -3.55273,-2.091797 3.96248,-2.2843999 5.74703,-4.4289738 5.35351,-6.4316405 C 125.01578,3.1438375 124.62678,2.6020646 124,2.2695312 123.6866,2.1032646 123.34193,2.0049458 122.96289,1.9765625 Z m -1.58594,1.4472656 c 0.53248,-0.024639 0.87938,0.3708938 1.03907,1.1835938 0.36881,1.8769333 -0.60281,3.4641385 -2.91407,4.7636719 -0.30607,-1.5576667 -0.26844,-2.8912001 0.11524,-4 0.38176,-1.1184667 0.88837,-1.7546896 1.51953,-1.9101563 0.0837,-0.020608 0.16416,-0.03359 0.24023,-0.037109 z m -9.91992,1.2773438 c -0.22802,0.0067 -0.46166,0.040143 -0.70312,0.099609 -0.74592,0.1837334 -1.38579,0.5542615 -1.91797,1.1113282 -0.5341,0.5474 -1.06281,1.3265573 -1.58594,2.3378906 l 0.0684,-2.6347656 -3.125,1.3945312 c -0.59846,3.0194697 -1.58241,5.7063527 -2.93555,8.0781257 -0.57139,0.998835 -1.02248,1.704766 -1.328122,2.054687 -0.319734,0.362733 -0.666106,0.591727 -1.039063,0.683594 -0.210387,0.0518 -0.406429,-0.002 -0.587891,-0.160156 -0.173811,-0.170267 -0.292735,-0.415109 -0.355468,-0.734375 -0.157793,-0.803 -0.124484,-2.215348 0.09961,-4.238282 l 0.542969,-4.8964843 -0.173828,0.042969 -3.492188,1.6660156 c -0.488488,2.9489957 -0.682329,5.3665497 -0.58789,7.2617187 l -0.02539,-0.126953 c -0.687737,1.143067 -1.330513,2.026057 -1.929688,2.650391 -0.591538,0.6122 -1.274226,1.014278 -2.048828,1.205078 -0.908488,0.223733 -1.702742,0.05853 -2.382812,-0.494141 -0.680072,-0.552667 -1.133147,-1.403354 -1.359375,-2.554687 -0.26235,-1.335134 -0.210262,-2.597003 0.158203,-3.783204 0.378027,-1.188533 0.917133,-1.869082 1.615234,-2.041015 0.296456,-0.073 0.555834,-1.17e-4 0.779297,0.21875 0.23303,0.216467 0.390963,0.537224 0.47461,0.962891 0.01901,0.09673 0.04211,0.370779 0.07031,0.820312 0.02629,0.4398 0.04729,0.697991 0.0625,0.775391 0.03803,0.193866 0.123933,0.273567 0.257812,0.240234 0.09563,-0.02353 0.234197,-0.107706 0.416016,-0.253906 l 1.507813,-1.207031 c 0.250714,-0.203734 0.411444,-0.385922 0.480468,-0.544922 0.07858,-0.161334 0.09035,-0.377505 0.03711,-0.648438 -0.150188,-0.764333 -0.539294,-1.318023 -1.167969,-1.660156 -0.630585,-0.3518669 -1.371547,-0.4224908 -2.222656,-0.212891 -1.730909,0.426267 -3.170619,1.697873 -4.31836,3.816407 -0.991831,1.832626 -1.398213,3.649302 -1.220703,5.447265 -0.891134,1.403593 -1.591549,2.360724 -2.083984,2.837891 -0.507252,0.479933 -1.07587,0.797725 -1.707031,0.953125 -1.616152,0.398 -2.801461,-0.299464 -3.554688,-2.091797 3.962488,-2.284333 5.747035,-4.427021 5.353516,-6.429688 -0.148284,-0.754666 -0.535327,-1.298392 -1.16211,-1.630859 -0.626789,-0.3326 -1.386024,-0.388989 -2.27539,-0.169922 -1.71178,0.421533 -3.106772,1.636151 -4.185547,3.646485 -0.979281,1.812888 -1.342578,3.647624 -1.103516,5.501953 -1.209886,2.333985 -2.246301,3.616103 -3.107422,3.828125 -0.650283,0.1602 -1.057208,-0.175746 -1.220703,-1.007813 -0.03231,-0.164467 -0.05978,-0.55824 -0.08203,-1.181641 -0.01267,-0.625733 -0.06705,-1.180262 -0.162109,-1.664062 -0.1711,-0.870733 -0.509425,-1.543311 -1.013672,-2.017578 -0.49659,-0.486267 -1.217955,-0.87245 -2.166016,-1.15625 2.228824,-1.106733 3.646438,-2.235339 4.251953,-3.388672 0.61509,-1.1556 0.822664,-2.241946 0.623047,-3.257812 C 69.606349,10.532704 68.609595,9.3383865 66.933594,8.5644531 65.267148,7.7881198 63.13239,7.718775 60.53125,8.359375 c -3.098422,0.7630667 -5.572523,2.173889 -7.423828,4.232422 -1.851319,2.058533 -2.566567,4.162813 -2.144531,6.310547 0.140691,0.716 0.433943,1.312282 0.878906,1.791015 0.452639,0.466667 0.889779,0.648522 1.310547,0.544922 0.267766,-0.06593 0.732427,-0.347436 1.396484,-0.845703 0.662151,-0.507933 0.969349,-0.889025 0.919922,-1.140625 -0.05514,-0.2806 -0.288249,-0.470666 -0.699219,-0.572265 -0.864018,-0.213267 -1.375409,-0.722391 -1.533203,-1.525391 -0.277549,-1.412467 0.284172,-2.889574 1.685547,-4.431641 1.399494,-1.551666 3.145931,-2.583876 5.240234,-3.0996091 3.289681,-0.8102 5.222798,0.2501739 5.798829,3.1816411 0.247139,1.257733 0.190713,2.397921 -0.169922,3.419921 -0.351056,1.019667 -0.976073,1.639995 -1.875,1.861329 l -0.972657,0.177734 c -0.411207,0.101267 -0.559428,0.437012 -0.447265,1.007812 0.06087,0.3094 0.269416,0.434953 0.628906,0.376954 0.589063,-0.114534 0.97359,0.278001 1.150391,1.177734 0.110258,0.561133 0.128698,1.404477 0.05859,2.527344 -0.06054,1.120533 -0.03193,1.980278 0.08594,2.580078 0.197712,1.0062 0.640284,1.750269 1.326172,2.230468 0.695454,0.477934 1.51204,0.599941 2.449218,0.369141 0.898921,-0.2214 1.732376,-0.726138 2.5,-1.513672 0.767637,-0.787466 1.591363,-1.927275 2.470704,-3.421875 l -0.01953,-0.09961 c 0.330949,0.909858 0.857836,1.610964 1.585938,2.101562 0.968691,0.643934 2.103723,0.806662 3.404297,0.486329 1.166686,-0.287334 2.175604,-0.835798 3.029297,-1.644532 0.840878,-0.807762 1.744293,-1.955125 2.707031,-3.435547 0.317808,0.851735 0.841834,1.5209 1.582031,2 0.972551,0.612534 2.081025,0.765118 3.324219,0.458985 1.109315,-0.2732 2.114121,-0.820092 3.015625,-1.640625 0.875888,-0.791015 1.786698,-1.913789 2.730469,-3.34961 0.006,0.03243 0.0093,0.0696 0.01563,0.101563 0.188202,0.9578 0.55532,1.705368 1.101562,2.240234 0.544345,0.525267 1.122336,0.71128 1.734375,0.560547 1.109308,-0.273133 2.550231,-1.875507 4.320321,-4.806641 l 0.0137,-0.0039 c 0.36386,-0.495266 1.01188,-1.734083 1.94531,-3.71875 -0.13941,4.903 -0.10332,9.701418 0.10742,14.396485 l 3.51563,-1.550782 c -0.16229,-1.897333 -0.20112,-4.462685 -0.11524,-7.699218 0.52551,0.276466 0.93808,0.432703 1.23633,0.470703 0.29823,0.03813 0.68591,-0.0014 1.16406,-0.119141 1.71178,-0.4216 3.11888,-1.70171 4.22266,-3.839844 1.11145,-2.1502 1.45726,-4.293507 1.03711,-6.4316402 -0.23953,-1.2190667 -0.73768,-2.1265032 -1.4961,-2.7207032 -0.56307,-0.45475 -1.18702,-0.6724562 -1.87109,-0.6523437 z m -1.81641,2.9453125 c 0.34166,0.00716 0.65649,0.1576219 0.94727,0.4511718 0.39536,0.3793334 0.66806,0.9405469 0.81445,1.6855469 0.27756,1.4124669 0.18948,2.9571929 -0.26367,4.6308589 -0.44548,1.6616 -1.15132,2.60979 -2.11719,2.847657 -0.60246,0.148333 -1.23375,-0.132264 -1.89453,-0.841797 l 0.13282,-3.988281 c 0.0472,-1.188267 0.13292,-2.030477 0.25585,-2.5273441 0.12105,-0.5064667 0.3526,-0.9799886 0.69727,-1.4199219 0.34468,-0.4398667 0.70321,-0.7050083 1.07617,-0.796875 0.11954,-0.029433 0.23768,-0.043403 0.35156,-0.041016 z M 62.355469,11.214844 c -0.06441,-0.0057 -0.122748,-0.0018 -0.177735,0.01172 -0.774602,0.190801 -1.581376,0.754607 -2.419922,1.691407 -0.830889,0.9248 -1.389404,2.014751 -1.673828,3.271484 -0.286308,1.247133 -0.340915,3.158555 -0.166015,5.732422 0.182562,2.5618 0.01606,4.573596 -0.498047,6.039063 -0.514092,1.465466 -1.269115,2.321472 -2.263672,2.566406 -0.468585,0.1154 -0.889221,0.03654 -1.263672,-0.236328 -0.376356,-0.2826 -0.618148,-0.694529 -0.724609,-1.236328 -0.02091,-0.106401 -0.04009,-0.456315 -0.05664,-1.050782 -0.007,-0.596666 -0.01806,-0.938324 -0.03516,-1.02539 -0.07224,-0.367667 -0.266454,-0.513281 -0.582031,-0.435547 -0.248638,0.0612 -0.6703,0.368055 -1.263672,0.919922 -0.593372,0.5518 -0.978076,0.965454 -1.154297,1.242187 -0.166658,0.274333 -0.221142,0.551431 -0.166016,0.832031 0.173005,0.8804 0.664517,1.575938 1.476563,2.085938 0.819722,0.498067 1.917848,0.577414 3.294922,0.238281 1.271884,-0.313267 2.443876,-0.906763 3.515625,-1.779297 1.08131,-0.874866 1.941942,-1.933314 2.580078,-3.175781 0.638116,-1.242467 1.010615,-2.485049 1.117187,-3.728516 0.114234,-1.2554 0.112308,-2.897801 -0.0059,-4.927734 -0.120024,-2.0396 -0.119385,-3.460519 0.0039,-4.261719 0.123279,-0.801266 0.513125,-1.621557 1.169922,-2.46289 -0.277996,-0.1901 -0.513812,-0.293397 -0.707031,-0.310547 z m 15.384765,2.957031 c 0.53248,-0.02465 0.879374,0.368999 1.039063,1.181641 0.368811,1.876933 -0.602813,3.464138 -2.914063,4.763672 -0.306077,-1.557667 -0.266487,-2.891201 0.117188,-4 0.381771,-1.118467 0.888376,-1.754757 1.519531,-1.910157 0.08368,-0.02061 0.162213,-0.03164 0.238281,-0.03516 z"
         style="font-style:normal;font-variant:normal;font-weight:bold;font-stretch:normal;font-size:30.2553978px;line-height:125%;font-family:'Script MT Bold';-inkscape-font-specification:'Script MT Bold, Bold';text-align:start;letter-spacing:0px;word-spacing:0px;writing-mode:lr-tb;text-anchor:start;fill:#1a1a1a;fill-opacity:1;stroke:none;stroke-width:1px;stroke-linecap:butt;stroke-linejoin:miter;stroke-opacity:1"
         inkscape:connector-curvature="0" />
      <path
         id="path4183"
         transform="translate(0,1004.3622)"
         d="m 119.43945,21.515625 c -0.33372,0.09813 -0.93614,0.43142 -1.80859,1.001953 l 0.68555,6.666016 c -0.2661,-0.1974 -0.49815,-0.325479 -0.69336,-0.382813 -0.18975,-0.05907 -0.42645,-0.04662 -0.71094,0.03711 -1.02307,0.300866 -1.78142,1.255148 -2.27734,2.863281 -0.39341,1.277652 -0.4677,2.54694 -0.25196,3.80664 -0.48836,1.603954 -0.93109,2.467206 -1.32812,2.583985 -0.26808,0.07887 -0.4655,-0.09282 -0.58985,-0.515625 -0.0933,-0.317067 -0.13486,-1.055911 -0.125,-2.214844 0.0146,-1.688533 -0.0764,-2.870408 -0.27539,-3.546875 -0.1202,-0.408667 -0.31336,-0.718574 -0.57812,-0.931641 -0.26685,-0.220066 -0.53935,-0.289097 -0.81836,-0.207031 -0.41032,0.120667 -0.80787,0.507663 -1.19141,1.164063 -0.38013,0.647666 -0.82968,1.749334 -1.34765,3.302734 -0.11534,-0.877133 -0.17586,-2.106986 -0.1836,-3.689453 l -1.85742,1.085937 c -0.081,1.401867 -0.0749,2.640997 0.0156,3.716797 0.047,0.525586 0.12464,1.059596 0.22851,1.59961 -0.28846,0.734562 -0.51758,1.286976 -0.6875,1.658203 -0.17216,0.3646 -0.36476,0.577958 -0.57812,0.640625 -0.33374,0.09813 -0.5913,-0.155786 -0.76953,-0.761719 -0.16994,-0.5778 -0.29682,-1.698568 -0.38282,-3.365234 l -0.18945,-3.310547 -0.45899,0.134765 -1.32226,1.6875 c -0.51189,-0.729866 -1.11106,-0.994102 -1.79492,-0.792968 -0.541624,0.159333 -1.077712,0.638033 -1.609378,1.4375 -0.531664,0.799466 -0.884403,1.74609 -1.05664,2.83789 -0.129772,0.848457 -0.108704,1.685402 0.05078,2.513672 -0.465637,1.352285 -1.131733,2.167267 -2.003906,2.423828 -0.459559,0.135067 -1.053871,0.143218 -1.785156,0.02148 -0.727893,-0.130467 -1.282325,-0.201558 -1.660157,-0.212891 -0.372353,-0.01293 -0.783722,0.06905 -1.236328,0.248047 0.429368,-1.167467 0.626884,-2.286269 0.591797,-3.355469 -0.03169,-1.0778 -0.183284,-2.275989 -0.453125,-3.597656 -0.264373,-1.3232 -0.432439,-2.289684 -0.503906,-2.896484 -0.07146,-0.606734 -0.04579,-1.152492 0.07813,-1.640625 0.129389,-0.489734 0.418573,-0.801594 0.867187,-0.933594 0.372026,-0.1094 0.716213,-0.02 1.033204,0.269531 0.314917,0.282533 0.562003,0.727984 0.740234,1.333984 0.232117,0.789134 0.292785,1.509243 0.18164,2.16211 -0.111149,0.6528 -0.352588,1.035131 -0.724609,1.144531 -0.22431,0.066 -0.442334,0.01094 -0.654297,-0.164062 0.01932,0.3082 0.06075,0.570662 0.125,0.789062 0.12435,0.4228 0.322312,0.729302 0.591797,0.917969 0.267418,0.181667 0.573298,0.222494 0.917969,0.121094 0.661986,-0.194667 1.124425,-0.782539 1.388672,-1.763672 0.264245,-0.981067 0.233582,-2.024593 -0.0918,-3.13086 -0.281856,-0.958333 -0.756608,-1.672778 -1.423828,-2.142578 -0.66382,-0.478466 -1.371962,-0.606832 -2.126953,-0.384765 -1.099662,0.323466 -1.912947,1.327672 -2.439454,3.013671 -0.523107,1.6774 -0.466578,3.769744 0.169922,6.277344 0.305154,1.2194 0.490691,2.105957 0.558594,2.660156 0.06583,0.5472 0.02324,1.14187 -0.126953,1.783204 -0.698453,0.373866 -1.192305,0.826135 -1.482422,1.355468 -0.286718,0.520734 -0.350868,1.048451 -0.193359,1.583985 0.07461,0.253666 0.205948,0.448117 0.394531,0.583984 0.188585,0.136133 0.387804,0.174615 0.595703,0.113281 0.596331,-0.1754 1.109162,-0.89423 1.541016,-2.154296 0.440826,0.02347 0.967194,0.114351 1.578125,0.271484 0.616398,0.155533 1.123092,0.243005 1.521484,0.263672 0.405923,0.02607 0.807262,-0.0189 1.201172,-0.134766 1.329457,-0.391026 2.387548,-1.593261 3.179687,-3.597656 0.238359,0.600611 0.551496,1.095719 0.947266,1.476562 0.509143,0.478067 1.004886,0.645507 1.486331,0.503907 0.49238,-0.1448 0.89816,-0.524339 1.21679,-1.138672 0.3241,-0.615934 0.61255,-1.507248 0.86328,-2.675781 0.52898,1.980399 1.22543,2.84411 2.08985,2.589843 0.34466,-0.101333 0.65729,-0.369487 0.93945,-0.804687 0.27421,-0.422863 0.68575,-1.286149 1.22266,-2.552735 0.0369,0.136305 0.0593,0.269064 0.0996,0.40625 0.13678,0.465067 0.37488,1.164123 0.71484,2.097657 l 1.65234,-1.082032 c -0.18652,-0.6342 -0.32648,-1.141264 -0.41992,-1.519531 -0.11979,-0.508333 -0.22816,-1.074199 -0.32226,-1.697265 -0.0544,-0.3668 -0.0271,-0.738635 0.082,-1.115235 l 0.25781,-0.822265 c 0.095,-0.303534 0.18766,-0.575673 0.27734,-0.816407 0.10121,-0.282466 0.19605,-0.524296 0.28516,-0.726562 0.10137,-0.2212 0.19537,-0.398784 0.28125,-0.53125 0.0968,-0.135467 0.18318,-0.213662 0.25977,-0.236328 0.13676,-0.04027 0.23835,0.05188 0.30468,0.277343 0.0663,0.225534 0.0946,0.792152 0.082,1.699219 -0.0255,1.6918 0.0712,2.914036 0.29297,3.667969 0.16373,0.556667 0.40681,0.967222 0.72852,1.232422 0.32172,0.2652 0.66665,0.344195 1.0332,0.236328 0.88757,-0.261017 1.70339,-1.415544 2.45117,-3.441406 0.22842,0.606406 0.55659,1.112972 1,1.507812 0.52141,0.459133 1.01545,0.621175 1.48047,0.484375 0.42674,-0.125533 0.83069,-0.509724 1.21289,-1.150391 0.38768,-0.642266 0.66881,-1.497339 0.8418,-2.566406 0.2811,0.935534 0.60534,1.613003 0.97266,2.033203 0.37278,0.4186 0.75218,0.571298 1.14062,0.457032 0.31732,-0.09327 0.6308,-0.37661 0.9375,-0.84961 0.3101,-0.481666 0.70972,-1.342698 1.20117,-2.582031 l -0.35742,-1.214844 c -0.4602,1.4062 -0.8647,2.160672 -1.21484,2.263672 -0.14225,0.04187 -0.28081,-0.0062 -0.41602,-0.142578 -0.13519,-0.136333 -0.24351,-0.337735 -0.32226,-0.605469 -0.33574,-1.141533 -0.7682,-4.636355 -1.29883,-10.482422 -0.13266,-1.461533 -0.20962,-2.23106 -0.23242,-2.308593 -0.0332,-0.112534 -0.10543,-0.151141 -0.21485,-0.119141 z m -2.00976,8.068359 c 0.1726,-5.37e-4 0.33891,0.07692 0.5,0.230469 0.22025,0.2032 0.39334,0.512001 0.51562,0.927735 0.30051,1.021733 0.38858,2.185787 0.26758,3.492187 -0.121,1.306467 -0.44822,2.037579 -0.98437,2.195313 -0.24072,0.0708 -0.46527,0.0157 -0.67383,-0.167969 -0.2031,-0.185267 -0.36258,-0.471842 -0.47657,-0.859375 -0.29014,-0.986467 -0.37524,-2.158578 -0.25781,-3.517578 0.11536,-1.366067 0.42675,-2.125791 0.93555,-2.275391 0.0588,-0.0173 0.11629,-0.02521 0.17383,-0.02539 z m -16.60157,4.996094 c 0.10822,0.02942 0.21291,0.08904 0.31446,0.181641 0.20102,0.178266 0.3605,0.464841 0.47656,0.859375 0.29843,1.014666 0.38057,2.196788 0.24805,3.544922 -0.12912,1.339466 -0.46657,2.089066 -1.01367,2.25 -0.22431,0.06593 -0.44405,0.0055 -0.66016,-0.183594 -0.212707,-0.197733 -0.37637,-0.486721 -0.488282,-0.867188 -0.296364,-1.0076 -0.376781,-2.182304 -0.242187,-3.523437 0.14006,-1.342667 0.484154,-2.094926 1.031249,-2.255859 0.11489,-0.03377 0.22577,-0.03528 0.33398,-0.0059 z"
         style="font-style:normal;font-variant:normal;font-weight:bold;font-stretch:normal;font-size:19.88146591px;line-height:125%;font-family:'Script MT Bold';-inkscape-font-specification:'Script MT Bold, Bold';text-align:start;letter-spacing:0px;word-spacing:0px;writing-mode:lr-tb;text-anchor:start;fill:#483737;fill-opacity:1;stroke:none;stroke-width:1px;stroke-linecap:butt;stroke-linejoin:miter;stroke-opacity:1"
         inkscape:connector-curvature="0" />
    </g>
  </g>
</svg>
