<?xml version="1.0" encoding="UTF-8" standalone="no"?>
<!-- Created with Inkscape (http://www.inkscape.org/) -->

<svg
   xmlns:dc="http://purl.org/dc/elements/1.1/"
   xmlns:cc="http://creativecommons.org/ns#"
   xmlns:rdf="http://www.w3.org/1999/02/22-rdf-syntax-ns#"
   xmlns:svg="http://www.w3.org/2000/svg"
   xmlns="http://www.w3.org/2000/svg"
   xmlns:sodipodi="http://sodipodi.sourceforge.net/DTD/sodipodi-0.dtd"
   xmlns:inkscape="http://www.inkscape.org/namespaces/inkscape"
   width="500"
   height="500"
   viewBox="0 0 500.00001 500.00001"
   id="svg62411"
   version="1.1"
   inkscape:version="0.91 r13725"
   sodipodi:docname="search.svg">
  <defs
     id="defs62413">
    <clipPath
       clipPathUnits="userSpaceOnUse"
       id="clipPath5382">
      <path
         d="m 0,595.28 841.89,0 L 841.89,0 0,0 0,595.28 Z"
         id="path5384"
         inkscape:connector-curvature="0" />
    </clipPath>
    <clipPath
       clipPathUnits="userSpaceOnUse"
       id="clipPath5358">
      <path
         d="m 506.429,77.935 c 0,-20.653 29.535,-37.395 65.969,-37.395 l 0,0 c 36.436,0 65.971,16.742 65.971,37.395 l 0,0 c 0,20.651 -29.535,37.393 -65.971,37.393 l 0,0 c -36.434,0 -65.969,-16.742 -65.969,-37.393"
         id="path5360"
         inkscape:connector-curvature="0" />
    </clipPath>
    <clipPath
       clipPathUnits="userSpaceOnUse"
       id="clipPath5366">
      <path
         d="m 504.942,157.966 135.672,0 0,-169.5764 -135.672,0 0,169.5764 z"
         id="path5368"
         inkscape:connector-curvature="0" />
    </clipPath>
    <clipPath
       clipPathUnits="userSpaceOnUse"
       id="clipPath18">
      <path
         d="m 572.577,183.334 c -0.714,-0.466 -2.095,-8.456 -2.809,-8.923 l 0,0 c -1.495,-0.977 -6.171,-1.087 -9.417,-3.207 l 0,0 c -2.967,-1.938 -5.865,-3.832 -7.232,-4.726 l 0,0 c 4.607,-7.051 9.215,-14.104 13.822,-21.156 l 0,0 c 7.815,-11.96 15.629,-23.921 23.443,-35.88 l 0,0 c 6.932,-10.613 13.867,-21.225 20.801,-31.839 l 0,0 c 3.003,-4.596 6.007,-9.195 9.011,-13.792 l 0,0 c 2.411,-3.691 11.229,-17.188 13.64,-20.878 l 0,0 c 1.368,0.893 1.272,7.355 5.414,7.495 l 0,0 c 4.531,0.152 7.046,3.158 7.846,4.756 l 0,0 c 0.479,0.958 1.118,1.099 1.832,1.566 l 0,0 c 0.569,0.372 1.87,-0.023 3.078,-0.418 l 0,0 c 1.419,-0.464 2.712,-0.93 2.538,-0.148 l 0,0 c -2.238,10.045 -0.906,13.678 1.617,15.326 l 0,0 c 7.454,4.871 4.761,14.708 12.216,19.579 l 0,0 c -2.411,3.69 0.204,7.295 -2.207,10.986 l 0,0 c -3.003,4.598 -0.886,4.315 -3.89,8.912 l 0,0 c -6.933,10.613 -13.867,21.225 -20.801,31.839 l 0,0 c -7.813,11.958 -13.935,21.33 -20.494,31.369 l 0,0 c -1.855,2.839 -1.729,2.646 -1.603,2.452 l 0,0 c 0.136,-0.208 0.272,-0.418 -2.125,3.253 l 0,0 c -3.729,-2.435 -9.199,-2.203 -14.67,-1.971 l 0,0 c -5.47,0.233 -10.941,0.465 -14.667,-1.969 l 0,0 c -1.262,-0.825 -2.94,0.15 -4.617,1.125 l 0,0 c -1.679,0.976 -3.357,1.95 -4.618,1.126 l 0,0 c -0.62,-0.405 -1.837,1.078 -3.054,2.561 l 0,0 c -1.078,1.315 -2.158,2.629 -2.82,2.629 l 0,0 c -0.085,0 -0.163,-0.021 -0.234,-0.067"
         id="path20"
         inkscape:connector-curvature="0" />
    </clipPath>
    <clipPath
       clipPathUnits="userSpaceOnUse"
       id="clipPath5382-2">
      <path
         d="m 0,595.28 841.89,0 L 841.89,0 0,0 0,595.28 Z"
         id="path5384-9"
         inkscape:connector-curvature="0" />
    </clipPath>
    <clipPath
       clipPathUnits="userSpaceOnUse"
       id="clipPath5358-3">
      <path
         d="m 506.429,77.935 c 0,-20.653 29.535,-37.395 65.969,-37.395 l 0,0 c 36.436,0 65.971,16.742 65.971,37.395 l 0,0 c 0,20.651 -29.535,37.393 -65.971,37.393 l 0,0 c -36.434,0 -65.969,-16.742 -65.969,-37.393"
         id="path5360-9"
         inkscape:connector-curvature="0" />
    </clipPath>
    <clipPath
       clipPathUnits="userSpaceOnUse"
       id="clipPath5366-3">
      <path
         d="m 504.942,157.966 135.672,0 0,-169.5764 -135.672,0 0,169.5764 z"
         id="path5368-3"
         inkscape:connector-curvature="0" />
    </clipPath>
    <clipPath
       clipPathUnits="userSpaceOnUse"
       id="clipPath18-5">
      <path
         d="m 572.577,183.334 c -0.714,-0.466 -2.095,-8.456 -2.809,-8.923 l 0,0 c -1.495,-0.977 -6.171,-1.087 -9.417,-3.207 l 0,0 c -2.967,-1.938 -5.865,-3.832 -7.232,-4.726 l 0,0 c 4.607,-7.051 9.215,-14.104 13.822,-21.156 l 0,0 c 7.815,-11.96 15.629,-23.921 23.443,-35.88 l 0,0 c 6.932,-10.613 13.867,-21.225 20.801,-31.839 l 0,0 c 3.003,-4.596 6.007,-9.195 9.011,-13.792 l 0,0 c 2.411,-3.691 11.229,-17.188 13.64,-20.878 l 0,0 c 1.368,0.893 1.272,7.355 5.414,7.495 l 0,0 c 4.531,0.152 7.046,3.158 7.846,4.756 l 0,0 c 0.479,0.958 1.118,1.099 1.832,1.566 l 0,0 c 0.569,0.372 1.87,-0.023 3.078,-0.418 l 0,0 c 1.419,-0.464 2.712,-0.93 2.538,-0.148 l 0,0 c -2.238,10.045 -0.906,13.678 1.617,15.326 l 0,0 c 7.454,4.871 4.761,14.708 12.216,19.579 l 0,0 c -2.411,3.69 0.204,7.295 -2.207,10.986 l 0,0 c -3.003,4.598 -0.886,4.315 -3.89,8.912 l 0,0 c -6.933,10.613 -13.867,21.225 -20.801,31.839 l 0,0 c -7.813,11.958 -13.935,21.33 -20.494,31.369 l 0,0 c -1.855,2.839 -1.729,2.646 -1.603,2.452 l 0,0 c 0.136,-0.208 0.272,-0.418 -2.125,3.253 l 0,0 c -3.729,-2.435 -9.199,-2.203 -14.67,-1.971 l 0,0 c -5.47,0.233 -10.941,0.465 -14.667,-1.969 l 0,0 c -1.262,-0.825 -2.94,0.15 -4.617,1.125 l 0,0 c -1.679,0.976 -3.357,1.95 -4.618,1.126 l 0,0 c -0.62,-0.405 -1.837,1.078 -3.054,2.561 l 0,0 c -1.078,1.315 -2.158,2.629 -2.82,2.629 l 0,0 c -0.085,0 -0.163,-0.021 -0.234,-0.067"
         id="path20-1"
         inkscape:connector-curvature="0" />
    </clipPath>
    <clipPath
       clipPathUnits="userSpaceOnUse"
       id="clipPath5326">
      <path
         d="m 0,595.28 841.89,0 L 841.89,0 0,0 0,595.28 Z"
         id="path5328"
         inkscape:connector-curvature="0" />
    </clipPath>
  </defs>
  <sodipodi:namedview
     id="base"
     pagecolor="#ffffff"
     bordercolor="#666666"
     borderopacity="1.0"
     inkscape:pageopacity="0.0"
     inkscape:pageshadow="2"
     inkscape:zoom="0.98994949"
     inkscape:cx="558.98278"
     inkscape:cy="265.02103"
     inkscape:document-units="px"
     inkscape:current-layer="layer1"
     showgrid="false"
     units="px"
     inkscape:window-width="1920"
     inkscape:window-height="1017"
     inkscape:window-x="-8"
     inkscape:window-y="-8"
     inkscape:window-maximized="1" />
  <metadata
     id="metadata62416">
    <rdf:RDF>
      <cc:Work
         rdf:about="">
        <dc:format>image/svg+xml</dc:format>
        <dc:type
           rdf:resource="http://purl.org/dc/dcmitype/StillImage" />
        <dc:title></dc:title>
      </cc:Work>
    </rdf:RDF>
  </metadata>
  <g
     inkscape:label="Layer 1"
     inkscape:groupmode="layer"
     id="layer1"
     transform="translate(0,-552.36216)">
    <g
       id="g5342"
       transform="matrix(3.1791852,0,0,5.0726917,3.0202001e-6,940.33177)">
      <path
         d="m 0,0 0,-55.477 c 0,0 19.928,-1.616 21.544,-21.005 l 115.264,0 c 0,0 -1.079,15.624 20.465,19.389 l 0,56.556 c 0,0 -19.927,3.231 -21.544,22.622 l -112.569,0 c 0,0 0,-18.853 -23.16,-22.085"
         style="fill:#f85e24;fill-opacity:1;fill-rule:nonzero;stroke:none"
         id="path5344"
         inkscape:connector-curvature="0" />
    </g>
    <g
       id="g5346"
       transform="matrix(3.1791852,0,0,5.0726917,21.373665,928.53015)">
      <path
         d="m 0,0 0,-50.733 c 0,0 18.223,-1.478 19.7,-19.206 l 105.409,0 c 0,0 -0.986,14.281 18.718,17.728 l 0,51.72 c 0,0 -18.226,2.955 -19.704,20.686 l -102.945,0 c 0,0 0,-17.24 -21.178,-20.195"
         style="fill:#ff8b02;fill-opacity:1;fill-rule:nonzero;stroke:none"
         id="path5348"
         inkscape:connector-curvature="0" />
    </g>
    <g
       id="g5350"
       transform="matrix(3.1791852,0,0,5.0726917,459.73085,802.3647)">
      <path
         d="m 0,0 c 0,-20.652 -29.535,-37.395 -65.971,-37.395 -36.433,0 -65.969,16.743 -65.969,37.395 0,20.651 29.536,37.394 65.969,37.394 C -29.535,37.394 0,20.651 0,0"
         style="fill:#ffb302;fill-opacity:1;fill-rule:nonzero;stroke:none"
         id="path5352"
         inkscape:connector-curvature="0" />
    </g>
    <g
       id="g63421"
       transform="matrix(3.1190553,0,0,3.1190553,-535.58987,-1690.093)"
       style="fill:#ffffff">
      <path
         d="m 253.67454,804.5528 c -11.64875,13.8825 -32.3475,15.6925 -46.22875,4.04375 -13.8825,-11.6475 -15.69125,-32.345 -4.04375,-46.22625 11.64875,-13.8825 32.34375,-15.6925 46.2275,-4.04375 13.88125,11.6475 15.6925,32.345 4.045,46.22625 m 4.99375,-57 c -19.83125,-16.64 -49.39875,-14.05375 -66.04,5.7775 -16.64,19.8325 -14.0525,49.39875 5.77875,66.04 17.54625,14.72375 42.715,14.39125 59.80875,0.3825 -0.19,2.87875 0.9475,5.80625 3.32625,7.80125 l 28.72625,24.105 c 3.96625,3.32875 9.88125,2.8125 13.20875,-1.155 l 4.0975,-4.88375 c 3.3275,-3.96625 2.81,-9.88 -1.15625,-13.2075 l -28.725,-24.105 c -2.38,-1.99625 -5.46,-2.6075 -8.2625,-1.92125 10.82875,-19.26625 6.785,-44.10875 -10.7625,-58.83375"
         style="fill:#ffffff;fill-opacity:1;fill-rule:nonzero;stroke:none"
         id="path144"
         inkscape:connector-curvature="0" />
      <path
         d="m 232.20116,767.92443 c 0,5.87999 -4.76625,10.64749 -10.6475,10.64749 -5.87875,0 -10.64625,-4.76749 -10.64625,-10.64749 0,-5.88 4.7675,-10.6475 10.64625,-10.6475 5.88125,0 10.6475,4.7675 10.6475,10.6475"
         style="fill:#ffffff;fill-opacity:1;fill-rule:nonzero;stroke:none"
         id="path148"
         inkscape:connector-curvature="0" />
    </g>
  </g>
</svg>
